<svg width="993" height="366" viewBox="0 0 993 366" fill="none" xmlns="http://www.w3.org/2000/svg">
<path d="M224.677 119.185C248.111 119.185 267.622 137.169 269.527 160.526L280.641 296.745C282.066 314.218 268.27 329.185 250.739 329.185H237.437C229.52 329.185 217.26 329.213 202.249 324.162C189.151 319.755 174.419 311.657 158.467 297.093C142.477 311.739 127.187 319.843 113.249 324.225C97.3535 329.222 83.7572 329.185 74.4374 329.185H66.0048C48.0066 329.185 34.0586 313.447 36.2216 295.579L52.7821 158.777C55.5176 136.181 74.6949 119.185 97.456 119.185H224.677ZM193.437 209.335C193.437 200.002 189.742 191.057 183.175 184.468C176.608 177.88 167.709 174.185 158.437 174.185C149.166 174.185 140.266 177.88 133.7 184.468C127.133 191.057 123.437 200.002 123.437 209.335C123.437 215.686 125.583 222.961 129.429 230.718C133.237 238.401 138.421 245.975 143.782 252.756C149.082 259.46 154.409 265.204 158.437 269.294C162.466 265.204 167.792 259.46 173.093 252.756C178.454 245.975 183.638 238.401 187.446 230.718C191.291 222.961 193.437 215.686 193.437 209.335ZM213.437 209.335C213.437 219.915 209.958 230.337 205.366 239.601C200.737 248.939 194.671 257.712 188.782 265.16C182.995 272.481 177.23 278.704 172.863 283.147C186.594 295.485 198.643 301.849 208.626 305.207C220.365 309.157 229.855 309.185 237.437 309.185H250.739C256.583 309.185 261.181 304.195 260.706 298.371L249.594 162.152C248.535 149.176 237.695 139.185 224.677 139.185H97.456C84.8109 139.185 74.1572 148.627 72.6376 161.181L56.077 297.983C55.3561 303.939 60.0054 309.185 66.0048 309.185H74.4374C83.6175 309.185 94.5215 309.147 107.251 305.145C117.999 301.765 130.442 295.413 144.039 283.176C139.669 278.731 133.892 272.496 128.093 265.16C122.204 257.712 116.138 248.939 111.509 239.601C106.917 230.337 103.437 219.915 103.437 209.335C103.437 194.719 109.224 180.695 119.535 170.35C129.847 160.004 143.84 154.185 158.437 154.185C173.035 154.185 187.028 160.004 197.34 170.35C207.651 180.695 213.437 194.719 213.437 209.335Z" fill="#1D61DE"/>
<path d="M128.175 65.9901C120.279 73.8865 115.842 84.5963 115.842 95.7635C115.842 100.414 112.072 104.185 107.421 104.185C102.77 104.185 99 100.414 99 95.7635C99 80.1294 105.211 65.1357 116.266 54.0807C127.321 43.0258 142.314 36.8152 157.948 36.8152C173.582 36.8152 188.576 43.0258 199.631 54.0807C210.686 65.1357 216.897 80.1294 216.897 95.7635C216.897 100.414 213.126 104.185 208.475 104.185C203.825 104.185 200.054 100.414 200.054 95.7635C200.054 84.5963 195.618 73.8865 187.722 65.9901C179.825 58.0937 169.115 53.6576 157.948 53.6576C146.781 53.6576 136.071 58.0937 128.175 65.9901Z" fill="#1D61DE"/>
<path d="M224.677 119.185C248.111 119.185 267.622 137.169 269.527 160.526L280.641 296.745C282.066 314.218 268.27 329.185 250.739 329.185H237.437C229.52 329.185 217.26 329.213 202.249 324.162C189.151 319.755 174.419 311.657 158.467 297.093C142.477 311.739 127.187 319.843 113.249 324.225C97.3535 329.222 83.7572 329.185 74.4374 329.185H66.0048C48.0066 329.185 34.0586 313.447 36.2216 295.579L52.7821 158.777C55.5176 136.181 74.6949 119.185 97.456 119.185H224.677ZM193.437 209.335C193.437 200.002 189.742 191.057 183.175 184.468C176.608 177.88 167.709 174.185 158.437 174.185C149.166 174.185 140.266 177.88 133.7 184.468C127.133 191.057 123.437 200.002 123.437 209.335C123.437 215.686 125.583 222.961 129.429 230.718C133.237 238.401 138.421 245.975 143.782 252.756C149.082 259.46 154.409 265.204 158.437 269.294C162.466 265.204 167.792 259.46 173.093 252.756C178.454 245.975 183.638 238.401 187.446 230.718C191.291 222.961 193.437 215.686 193.437 209.335ZM213.437 209.335C213.437 219.915 209.958 230.337 205.366 239.601C200.737 248.939 194.671 257.712 188.782 265.16C182.995 272.481 177.23 278.704 172.863 283.147C186.594 295.485 198.643 301.849 208.626 305.207C220.365 309.157 229.855 309.185 237.437 309.185H250.739C256.583 309.185 261.181 304.195 260.706 298.371L249.594 162.152C248.535 149.176 237.695 139.185 224.677 139.185H97.456C84.8109 139.185 74.1572 148.627 72.6376 161.181L56.077 297.983C55.3561 303.939 60.0054 309.185 66.0048 309.185H74.4374C83.6175 309.185 94.5215 309.147 107.251 305.145C117.999 301.765 130.442 295.413 144.039 283.176C139.669 278.731 133.892 272.496 128.093 265.16C122.204 257.712 116.138 248.939 111.509 239.601C106.917 230.337 103.437 219.915 103.437 209.335C103.437 194.719 109.224 180.695 119.535 170.35C129.847 160.004 143.84 154.185 158.437 154.185C173.035 154.185 187.028 160.004 197.34 170.35C207.651 180.695 213.437 194.719 213.437 209.335Z" stroke="#1D61DE" stroke-width="8"/>
<path d="M128.175 65.9901C120.279 73.8865 115.842 84.5963 115.842 95.7635C115.842 100.414 112.072 104.185 107.421 104.185C102.77 104.185 99 100.414 99 95.7635C99 80.1294 105.211 65.1357 116.266 54.0807C127.321 43.0258 142.314 36.8152 157.948 36.8152C173.582 36.8152 188.576 43.0258 199.631 54.0807C210.686 65.1357 216.897 80.1294 216.897 95.7635C216.897 100.414 213.126 104.185 208.475 104.185C203.825 104.185 200.054 100.414 200.054 95.7635C200.054 84.5963 195.618 73.8865 187.722 65.9901C179.825 58.0937 169.115 53.6576 157.948 53.6576C146.781 53.6576 136.071 58.0937 128.175 65.9901Z" stroke="#1D61DE" stroke-width="8"/>
<path d="M350.289 278.867C340.826 278.867 333.727 270.212 335.579 260.932L361.494 131.065C362.893 124.05 369.051 119 376.204 119H385.886C391.185 119 396.091 121.796 398.792 126.355L459.2 228.335C460.83 231.088 458.728 234.546 455.534 234.364V234.364C453.11 234.227 451.367 231.978 451.838 229.597L471.34 131.087C472.73 124.062 478.893 119 486.054 119H491.902C501.365 119 508.464 127.655 506.612 136.935L480.697 266.802C479.297 273.817 473.14 278.867 465.987 278.867H456.518C451.227 278.867 446.327 276.079 443.623 271.53L383.069 169.641C381.406 166.842 383.541 163.321 386.791 163.502V163.502C389.262 163.64 391.039 165.934 390.554 168.361L370.87 266.808C369.468 273.82 363.311 278.867 356.161 278.867H350.289Z" fill="#1D61DE"/>
<path d="M522.18 325C515.952 325 509.8 324.01 503.723 322.031C502.428 321.62 501.189 321.182 500.006 320.717C493.103 318.01 491.872 309.651 495.875 303.41L499.762 297.35C502.682 292.797 509.007 292.034 513.977 294.169V294.169C517.319 295.539 520.965 296.224 524.915 296.224C529.472 296.224 533.422 295.082 536.764 292.798C540.258 290.514 543.676 286.632 547.018 281.151L556.872 265.532L559.195 261.839L620.355 163.049C623.069 158.665 627.857 155.998 633.013 155.998V155.998C644.693 155.998 651.823 168.834 645.653 178.751L578.235 287.089C572.159 296.681 566.31 304.217 560.69 309.698C555.221 315.332 549.372 319.29 543.144 321.574C537.068 323.858 530.08 325 522.18 325ZM548.44 278.934L524.171 174.39C521.988 164.985 529.128 155.998 538.783 155.998H543.184C550.32 155.998 556.468 161.025 557.885 168.019L572.585 240.557L548.44 278.934Z" fill="#1D61DE"/>
<path d="M668.204 278.867C658.747 278.867 651.65 270.223 653.491 260.947L671.919 168.078C673.312 161.056 679.474 155.998 686.632 155.998H690.675C699.652 155.998 706.378 164.22 704.599 173.019L702.856 181.642C702.354 184.127 698.873 184.315 698.106 181.898V181.898C697.902 181.256 697.969 180.556 698.305 179.971C703.704 170.564 710.671 163.943 719.206 160.109C723.349 158.247 727.879 156.823 732.795 155.837C742.041 153.982 749.211 162.77 747.415 172.028L745.325 182.8C744.857 185.212 742.627 186.829 740.169 186.829V186.829C738.954 186.677 737.663 186.601 736.296 186.601C725.814 186.601 717.231 189.189 710.547 194.366C704.015 199.543 699.609 207.916 697.331 219.488L687.889 266.802C686.489 273.817 680.332 278.867 673.179 278.867H668.204Z" fill="#1D61DE"/>
<path d="M763.771 288.459C754.311 288.459 747.213 279.809 749.059 270.531L776.813 131.072C778.21 124.054 784.369 119 791.525 119H796.483C805.943 119 813.041 127.65 811.195 136.928L783.441 276.387C782.045 283.405 775.885 288.459 768.73 288.459H763.771Z" fill="#1D61DE"/>
<path d="M824.369 325C818.141 325 811.989 324.01 805.912 322.031C804.617 321.62 803.378 321.182 802.195 320.717C795.292 318.01 794.061 309.651 798.064 303.41L801.951 297.35C804.871 292.797 811.196 292.034 816.166 294.169V294.169C819.508 295.539 823.154 296.224 827.104 296.224C831.661 296.224 835.611 295.082 838.953 292.798C842.447 290.514 845.865 286.632 849.207 281.151L859.005 265.621L861.552 261.922L922.548 163.065C925.259 158.672 930.051 155.998 935.213 155.998V155.998C946.888 155.998 954.016 168.829 947.847 178.741L880.424 287.089C874.348 296.681 868.499 304.217 862.879 309.698C857.41 315.332 851.561 319.29 845.333 321.574C839.256 323.858 832.269 325 824.369 325ZM849.207 281.151L826.029 174.174C824.004 164.827 831.125 155.998 840.689 155.998H845.443C852.547 155.998 858.677 160.981 860.127 167.936L875.269 240.557L849.207 281.151Z" fill="#1D61DE"/>
</svg>
