<svg width="2002" height="537" viewBox="0 0 2002 537" fill="none" xmlns="http://www.w3.org/2000/svg">
<path fill-rule="evenodd" clip-rule="evenodd" d="M14.1508 3.76379C3.66118 8.33198 -1.59304 20.5165 0.425959 35.5826C2.67048 52.3273 11.5546 58.9177 32.6359 59.4764C79.0379 60.7037 80.4099 60.8728 87.6482 66.2306C103.075 77.6497 102.847 75.4825 104.305 224.2C105.787 375.339 105.156 369.855 123.416 390.655C128.388 396.322 138.507 403.774 145.901 407.22L159.344 413.48L325.31 413.507C434.054 413.526 493.056 412.58 496.439 410.768C503.355 407.067 509.715 394.235 509.715 383.992C509.715 372.552 502.761 360.107 494.645 357.021C490.669 355.509 432.743 354.451 353.97 354.451H220.054L212.944 348.336C204.028 340.663 201.217 320.038 201.147 261.798C201.042 176.528 207.156 152.204 235.924 123.428C258.014 101.331 274.282 95.2619 311.037 95.4096C333.901 95.4982 341.577 96.5966 351.656 101.213C367.196 108.333 382.755 123.678 388.975 138.022C398.259 159.429 397.927 171.635 386.175 240.313C380.11 275.763 374.458 309.301 373.615 314.838L372.082 324.909H408.814C456.279 324.909 464.14 321.069 470.428 294.82C477.97 263.334 496.291 157.315 496.291 145.16C496.291 93.1537 464.175 43.0486 415.432 19.0072C385.179 4.08873 360.06 -0.995107 325.804 0.866007C273.13 3.73153 228.605 24.3301 199.332 59.377C193.935 65.8359 188.982 71.1211 188.324 71.1211C187.664 71.1211 184.796 64.5118 181.953 56.4336C172.639 29.9832 149.566 7.99092 125.767 2.88561C105.814 -1.39522 24.525 -0.756062 14.1508 3.76379Z" fill="#276FF4"/>
<path d="M238 488.5C238 515.286 216.286 537 189.5 537C162.714 537 141 515.286 141 488.5C141 461.714 162.714 440 189.5 440C216.286 440 238 461.714 238 488.5Z" fill="#276FF4"/>
<path d="M461 488.5C461 515.286 439.286 537 412.5 537C385.714 537 364 515.286 364 488.5C364 461.714 385.714 440 412.5 440C439.286 440 461 461.714 461 488.5Z" fill="#276FF4"/>
<path fill-rule="evenodd" clip-rule="evenodd" d="M1249.45 364.045H1311.2V309.758C1311.2 263.107 1311.73 256.022 1314.96 259.403C1317.03 261.565 1333.46 283.88 1351.46 308.99C1369.46 334.1 1386.26 356.796 1388.8 359.426C1392.83 363.615 1397.74 364.115 1428.48 363.454L1463.57 362.702L1418.4 300.987C1380 248.513 1373.75 238.66 1376.7 235.19C1378.61 232.945 1397.88 210.332 1419.52 184.937C1441.16 159.545 1458.86 138.093 1458.86 137.268C1458.86 136.444 1443.42 135.769 1424.55 135.769H1390.24L1312.54 229.413L1309.85 74H1249.45V364.045ZM1868.22 126.968C1856.57 133.735 1850.85 133.084 1850.85 133.084V193.606L1885.33 193.7L1886.25 251.921C1887.12 313.985 1887.46 317.651 1893.5 329.881C1906.81 356.831 1931.79 368.371 1971.87 366.086C1984.7 365.353 1996.54 363.921 1998.19 362.898C2000.06 361.746 2001.2 351.64 2001.2 336.271V311.501L1982.77 312.543C1965.36 313.526 1963.82 313.129 1955.25 305.469L1946.16 297.353L1944.82 193.606L2000.72 191.968V133.968L1944.82 133.084V74.0009H1885.75C1885.75 74.0009 1888.16 115.373 1868.22 126.968ZM704.818 133.175C691.593 135.901 673.468 145.757 665.518 154.542L660.178 160.445L654.507 137.112L599.715 135.581V364.045H660.889L661.848 293.475C662.79 224.198 662.932 222.664 669.588 209.733C678.582 192.247 694.584 183.154 713.348 184.865C729.009 186.293 738.873 193.005 746.039 207.112C750.941 216.761 751.486 224.031 752.305 290.862L753.199 364.045H814.502L814.448 293.548C814.419 254.776 813.192 214.712 811.718 204.518C805.374 160.622 778.735 136.774 730.883 132.152C722.976 131.389 711.246 131.848 704.818 133.175ZM1195.47 132.907C1179.05 136.116 1161.67 148.18 1153.53 162.027L1146.08 174.711L1144.5 135.769H1088.36V364.222L1148.76 362.702L1151.45 225.328L1159.03 213.88C1169.41 198.199 1185.02 191.428 1208.05 192.618L1225.29 193.51L1225.28 130.398L1215.21 130.707C1209.68 130.876 1200.79 131.867 1195.47 132.907ZM1535.07 134.01C1506 141.447 1487.53 157.472 1477.46 183.981C1468.12 208.573 1467.81 208.28 1502.62 208.28H1532.96L1536.22 199.265C1540.6 187.131 1547.82 181.129 1560.9 178.736C1588.24 173.736 1609.21 187.236 1609.21 209.83C1609.21 216.364 1608.78 221.708 1608.26 221.708C1598.48 221.708 1533.84 227.96 1522.13 230.039C1487.65 236.159 1469.03 252.628 1464.4 281.111C1459.55 310.926 1471.2 339.437 1494.71 355.244C1510.58 365.919 1522.55 369.381 1543.63 369.4C1566.08 369.421 1582.77 363.094 1597.15 349.116L1609.21 337.39V364.045H1671.37L1669.62 196.195L1662.06 180.783C1652.58 161.471 1636.44 147.935 1612.55 139.247C1590.46 131.215 1555.28 128.835 1535.07 134.01ZM1795.21 139.929C1782.31 146.361 1771.76 157.021 1766.1 169.339C1764.28 173.311 1763.42 169.637 1762.82 155.24L1762.01 135.769H1703.18V364.045H1764.93V305.327C1764.93 226.615 1767.65 213.807 1787.46 199.047C1793.63 194.458 1798.77 193.526 1817.51 193.606L1840.11 193.7V133.084H1824.53C1813.21 133.084 1805.19 134.956 1795.21 139.929ZM817.187 137.099C817.187 137.829 838.934 189.132 865.514 251.102C892.094 313.072 913.806 365.952 913.766 368.61C913.613 378.297 901.622 397.051 892.29 402.194C885.057 406.179 878.903 407.127 864.843 406.413L846.72 405.497V460.482L856.45 462.308C870.099 464.87 899.821 461.905 912.007 456.768C925.09 451.251 944.617 433.282 952.774 419.255C956.259 413.261 970.55 379.957 984.535 345.246C998.518 310.534 1022.77 250.337 1038.42 211.474C1054.07 172.61 1066.88 139.642 1066.88 138.208C1066.88 136.629 1054.12 135.901 1034.43 136.358L1001.98 137.112L974.65 210.528C959.617 250.909 946.185 284.143 944.8 284.382C943.417 284.624 928.938 251.298 912.625 210.327L882.965 135.834L850.076 135.802C831.986 135.783 817.187 136.368 817.187 137.099ZM1609.21 277.899C1609.21 291.276 1608.06 295.183 1601.94 302.453C1588.35 318.61 1558.68 326.073 1540.67 317.866C1521.81 309.267 1521.42 279.679 1540.04 269.708C1545.55 266.759 1573.92 263.155 1597.8 262.368L1609.21 261.992V277.899Z" fill="#276FF4"/>
</svg>
